<svg xmlns="http://www.w3.org/2000/svg" width="96" height="99" fill="none"><path fill="url(#a)" fill-opacity=".5" d="M42.5 54.2 17.9 68.4c-1 .6-2.3 0-3-1.2L1.4 43.7c-.8-1.2-.6-2.7.3-3.2l24.6-14.2c1-.5 2.3 0 3 1.3L42.8 51c.8 1.3.6 2.7-.3 3.2Z"/><path fill="url(#b)" fill-opacity=".2" d="M78.1 68.4 53.5 54.2c-.9-.5-1-2-.3-3.2l13.5-23.4c.7-1.3 2-1.8 3-1.3l24.6 14.2c.9.5 1 2 .3 3.2L81.1 67.2c-.7 1.2-2 1.8-3 1.2Z"/><path fill="url(#c)" d="M62 57.3H33.3c-1 0-2-1.5-2-3.2V20.7c0-1.7 1-3.1 2-3.1H62c1 0 2 1.4 2 3.1v33.4c0 1.7-1 3.2-2 3.2Z"/><path fill="#F5FCFF" fill-opacity=".4" d="m19.1 46.1 2.6 4.5c.2.3.7.3.8 0l2.2-4.3c.2-.3 0-.7-.4-.7l-4.7-.2c-.4 0-.7.4-.5.7Z"/><rect width="1.2" height="1.2" x="2.6" y="41.5" fill="#F5FCFF" fill-opacity=".4" rx=".4" transform="rotate(-30 2.6 41.5)"/><rect width="1.2" height="1.2" x="4.8" y="40.2" fill="#F5FCFF" fill-opacity=".4" rx=".4" transform="rotate(-30 4.8 40.2)"/><rect width="1.2" height="1.2" x="6.9" y="39" fill="#F5FCFF" fill-opacity=".4" rx=".4" transform="rotate(-30 7 39)"/><rect width="1.2" height="1.2" x="9.1" y="37.7" fill="#F5FCFF" fill-opacity=".4" rx=".4" transform="rotate(-30 9 37.7)"/><rect width="1.2" height="1.2" x="11.2" y="36.5" fill="#F5FCFF" fill-opacity=".4" rx=".4" transform="rotate(-30 11.2 36.5)"/><rect width="1.2" height="1.2" x="13.3" y="35.3" fill="#F5FCFF" fill-opacity=".4" rx=".4" transform="rotate(-30 13.3 35.3)"/><rect width="1.2" height="1.2" x="15.5" y="34" fill="#F5FCFF" fill-opacity=".4" rx=".4" transform="rotate(-30 15.5 34)"/><rect width="1.2" height="1.2" x="17.6" y="32.8" fill="#F5FCFF" fill-opacity=".4" rx=".4" transform="rotate(-30 17.6 32.8)"/><rect width="1.2" height="1.2" x="19.8" y="31.5" fill="#F5FCFF" fill-opacity=".4" rx=".4" transform="rotate(-30 19.8 31.5)"/><rect width="1.2" height="1.2" x="21.9" y="30.3" fill="#F5FCFF" fill-opacity=".4" rx=".4" transform="rotate(-30 22 30.3)"/><rect width="1.2" height="1.2" x="24.1" y="29.1" fill="#F5FCFF" fill-opacity=".4" rx=".4" transform="rotate(-30 24 29)"/><rect width="1.2" height="1.2" x="26.2" y="27.8" fill="#F5FCFF" fill-opacity=".4" rx=".4" transform="rotate(-30 26.2 27.8)"/><rect width="1" height="1.2" x="16.5" y="66.3" fill="#F5FCFF" fill-opacity=".4" rx=".4" transform="rotate(-30 16.5 66.3)"/><rect width="1" height="1.2" x="18.5" y="65.1" fill="#F5FCFF" fill-opacity=".4" rx=".4" transform="rotate(-30 18.5 65.1)"/><rect width="1" height="1.2" x="20.5" y="64" fill="#F5FCFF" fill-opacity=".4" rx=".4" transform="rotate(-30 20.5 64)"/><rect width="1" height="1.2" x="22.5" y="62.8" fill="#F5FCFF" fill-opacity=".4" rx=".4" transform="rotate(-30 22.5 62.8)"/><rect width="1" height="1.2" x="24.5" y="61.7" fill="#F5FCFF" fill-opacity=".4" rx=".4" transform="rotate(-30 24.5 61.7)"/><rect width="1" height="1.2" x="26.5" y="60.5" fill="#F5FCFF" fill-opacity=".4" rx=".4" transform="rotate(-30 26.5 60.5)"/><rect width="1" height="1.2" x="28.5" y="59.3" fill="#F5FCFF" fill-opacity=".4" rx=".4" transform="rotate(-30 28.5 59.3)"/><rect width="1" height="1.2" x="30.5" y="58.2" fill="#F5FCFF" fill-opacity=".4" rx=".4" transform="rotate(-30 30.5 58.2)"/><rect width="1" height="1.2" x="32.5" y="57" fill="#F5FCFF" fill-opacity=".4" rx=".4" transform="rotate(-30 32.5 57)"/><rect width="1" height="1.2" x="34.5" y="55.9" fill="#F5FCFF" fill-opacity=".4" rx=".4" transform="rotate(-30 34.5 55.9)"/><rect width="1" height="1.2" x="36.5" y="54.7" fill="#F5FCFF" fill-opacity=".4" rx=".4" transform="rotate(-30 36.5 54.7)"/><rect width="1" height="1.2" x="38.6" y="53.6" fill="#F5FCFF" fill-opacity=".4" rx=".4" transform="rotate(-30 38.6 53.6)"/><rect width="1" height="1.2" x="40.6" y="52.4" fill="#F5FCFF" fill-opacity=".4" rx=".4" transform="rotate(-30 40.6 52.4)"/><path fill="url(#d)" fill-opacity=".7" d="M60.3 42.4H35c-1 0-1.7-.8-1.7-1.8V21.3c0-1 .8-1.8 1.7-1.8h25.3c1 0 1.7.8 1.7 1.8v19.3c0 1-.7 1.8-1.7 1.8Z"/><path fill="#F5FCFF" fill-opacity=".7" fill-rule="evenodd" d="M54.9 34c-.4-.6-1.2-.6-1.7-.1l-5 5c-.6.7-1.7.9-2.5.3L42 37c-.4-.3-.8-.3-1.2 0l-6.9 4.8-.5-.7 6.8-4.9c.7-.5 1.6-.5 2.4 0l3.6 2.2c.4.3 1 .2 1.4-.2l5-5c.8-.9 2.2-.8 3 .1L62 41s0 .3-.2.5l-.3.4-6.6-8Z" clip-rule="evenodd"/><circle cx="73.9" cy="47.4" r="9.4" fill="url(#e)" fill-opacity=".2"/><path fill="#B6B6B6" d="m73.5 44.1-2.6 4.5c-.2.3 0 .7.5.7l4.7-.2c.4 0 .6-.4.4-.7l-2.2-4.2a.5.5 0 0 0-.8 0Z"/><path stroke="#F5FCFF" stroke-opacity=".2" stroke-width="1.3" d="M33.3 43.8h28.2M33.3 45.7h17.3"/><g filter="url(#f)"><path fill="url(#g)" d="M67 78.4H28.3a3.2 3.2 0 0 1-3.2-3.2V45.8c0-2.7 2.2-4.9 4.8-4.9h6.7c1.2 0 2.4.5 3.3 1.3l4.6 4.3c1 .8 2 1.2 3.3 1.2h19.9c1.4 0 2.6 1.2 2.6 2.6v24.9c0 1.8-1.5 3.2-3.3 3.2Z"/></g><defs><linearGradient id="a" x1="14" x2="30.2" y1="33.4" y2="61.3" gradientUnits="userSpaceOnUse"><stop stop-color="gray"/><stop offset="1" stop-color="gray" stop-opacity=".5"/></linearGradient><linearGradient id="b" x1="82" x2="65.8" y1="33.4" y2="61.3" gradientUnits="userSpaceOnUse"><stop stop-color="gray"/><stop offset="1" stop-color="gray" stop-opacity=".5"/></linearGradient><linearGradient id="c" x1="47" x2="47.6" y1="17.4" y2="59.1" gradientUnits="userSpaceOnUse"><stop stop-color="#8E8E8E"/><stop offset="1" stop-color="#838383"/></linearGradient><linearGradient id="d" x1="47.7" x2="47.7" y1="19.5" y2="42.4" gradientUnits="userSpaceOnUse"><stop stop-color="#fff" stop-opacity=".7"/><stop offset="1" stop-color="#fff" stop-opacity=".3"/></linearGradient><linearGradient id="e" x1="78.9" x2="68.1" y1="39" y2="54.7" gradientUnits="userSpaceOnUse"><stop stop-color="snow" stop-opacity=".7"/><stop offset="1" stop-color="#fff" stop-opacity=".3"/></linearGradient><linearGradient id="g" x1="47.7" x2="47.7" y1="40.9" y2="78.4" gradientUnits="userSpaceOnUse"><stop stop-color="#959595"/><stop offset="1" stop-color="#757575"/></linearGradient><filter id="f" width="71.5" height="63.8" x="11.9" y="34.4" color-interpolation-filters="sRGB" filterUnits="userSpaceOnUse"><feFlood flood-opacity="0" result="BackgroundImageFix"/><feColorMatrix in="SourceAlpha" result="hardAlpha" values="0 0 0 0 0 0 0 0 0 0 0 0 0 0 0 0 0 0 127 0"/><feOffset dy="6.6"/><feGaussianBlur stdDeviation="6.6"/><feColorMatrix values="0 0 0 0 0 0 0 0 0 0 0 0 0 0 0 0 0 0 0.05 0"/><feBlend in2="BackgroundImageFix" result="effect1_dropShadow_658_1252"/><feBlend in="SourceGraphic" in2="effect1_dropShadow_658_1252" result="shape"/></filter></defs></svg>